<?xml version="1.0"?>
<svg xmlns="http://www.w3.org/2000/svg" xmlns:xlink="http://www.w3.org/1999/xlink" version="1.1" id="Capa_1" x="0px" y="0px" viewBox="0 0 512 512" style="enable-background:new 0 0 512 512;" xml:space="preserve" width="512px" height="512px" class=""><g><circle style="fill:#00FCD3" cx="256" cy="256" r="256" data-original="#FFB74F" class="" data-old_color="##00FCD"/><path style="fill:#12D7B8" d="M505.329,314.287L322.702,131.659c-28.504-30.196-68.898-49.046-113.699-49.046  c-86.341,0-156.336,69.996-156.336,156.336c0,44.801,18.85,85.195,49.046,113.699l159.288,159.288  C380.116,509.653,479.31,426.026,505.329,314.287z" data-original="#FE880C" class="active-path" data-old_color="#12D6B7"/><circle style="fill:#0062BC" cx="209" cy="238.94" r="89.04" data-original="#0062BC" class="" data-old_color="#30FF00"/><path style="fill:#003C7D" d="M298.043,238.939c0,12.487-2.566,24.364-7.2,35.154c-9,20.918-25.781,37.699-46.699,46.678  c-10.78,4.656-22.667,7.221-35.143,7.221V149.896c12.477,0,24.363,2.566,35.143,7.211c20.918,8.99,37.699,25.77,46.699,46.689  C295.478,214.576,298.043,226.463,298.043,238.939z" data-original="#003C7D" class=""/><path style="fill:#0E6EF3" d="M303.374,363.589c37.643-28.555,61.966-73.751,61.966-124.64  c0-86.341-69.995-156.336-156.336-156.336S52.667,152.609,52.667,238.95s69.995,156.336,156.336,156.336  c5.734,0,213.837,0,213.837,0L442,363.589H303.374z M102.232,238.95c0-20.536,16.706-37.241,37.231-37.241  c20.536,0,37.241,16.706,37.241,37.241c0,20.525-16.706,37.231-37.241,37.231C118.938,276.18,102.232,259.474,102.232,238.95z   M246.234,169.41c0,20.536-16.695,37.242-37.23,37.242c-20.536,0-37.231-16.706-37.231-37.242c0-20.535,16.695-37.23,37.231-37.23  C229.539,132.179,246.234,148.874,246.234,169.41z M171.772,308.479c0-20.525,16.695-37.231,37.231-37.231  s37.23,16.706,37.23,37.231c0,20.536-16.695,37.241-37.23,37.241C188.467,345.72,171.772,329.014,171.772,308.479z M241.301,238.95  c0-20.536,16.706-37.241,37.231-37.241c20.536,0,37.241,16.706,37.241,37.241c0,20.525-16.706,37.231-37.241,37.231  C258.007,276.18,241.301,259.474,241.301,238.95z" data-original="#0E6EF3" class="" data-old_color="#0E6EF3"/><path style="fill:#0062BC" d="M303.371,363.591c37.647-28.553,61.969-73.753,61.969-124.642c0-86.343-69.997-156.34-156.34-156.34  v49.565c16.232,0,30.053,10.428,35.143,24.933c1.355,3.849,2.09,7.987,2.09,12.301c0,20.536-16.698,37.244-37.233,37.244v64.597  c20.536,0,37.233,16.708,37.233,37.233c0,4.304-0.735,8.442-2.09,12.29c-5.08,14.515-18.911,24.953-35.143,24.953v49.565h213.84  L442,363.591H303.371z M241.298,238.95c0-20.536,16.708-37.244,37.233-37.244c4.314,0,8.452,0.734,12.311,2.09  c14.504,5.09,24.933,18.932,24.933,35.154s-10.428,30.053-24.933,35.144c-3.859,1.355-7.997,2.09-12.311,2.09  C258.006,276.183,241.298,259.475,241.298,238.95z" data-original="#0062BC" class="" data-old_color="#30FF00"/><path style="fill:#FFF7D6" d="M209.003,112.194c-70.006,0-126.756,56.75-126.756,126.756c0,69.995,56.75,126.745,126.756,126.745  s126.756-56.749,126.756-126.745C335.759,168.944,279.009,112.194,209.003,112.194z M209.003,132.179  c20.536,0,37.23,16.695,37.23,37.23c0,20.536-16.695,37.242-37.23,37.242c-20.536,0-37.231-16.706-37.231-37.242  C171.772,148.874,188.467,132.179,209.003,132.179z M139.463,276.18c-20.525,0-37.231-16.706-37.231-37.231  c0-20.536,16.706-37.241,37.231-37.241c20.536,0,37.241,16.706,37.241,37.241C176.704,259.474,159.999,276.18,139.463,276.18z   M209.003,345.72c-20.536,0-37.231-16.706-37.231-37.241c0-20.525,16.695-37.231,37.231-37.231s37.23,16.706,37.23,37.231  C246.234,329.014,229.539,345.72,209.003,345.72z M278.532,276.18c-20.525,0-37.231-16.706-37.231-37.231  c0-20.536,16.706-37.241,37.231-37.241c20.536,0,37.241,16.706,37.241,37.241C315.773,259.474,299.068,276.18,278.532,276.18z" data-original="#FFF7D6" class=""/><path style="fill:#FEE572" d="M209,112.197v19.977c16.232,0,30.053,10.428,35.143,24.933c1.355,3.849,2.09,7.987,2.09,12.301  c0,20.536-16.698,37.244-37.233,37.244v64.597c20.536,0,37.233,16.708,37.233,37.233c0,4.304-0.735,8.442-2.09,12.29  c-5.08,14.515-18.911,24.953-35.143,24.953v19.967c70.007,0,126.763-56.744,126.763-126.742  C335.763,168.942,279.008,112.197,209,112.197z M290.843,274.093c-3.859,1.355-7.997,2.09-12.311,2.09  c-20.525,0-37.233-16.708-37.233-37.233c0-20.536,16.708-37.244,37.233-37.244c4.314,0,8.452,0.734,12.311,2.09  c14.504,5.09,24.933,18.932,24.933,35.154C315.775,255.171,305.347,269.003,290.843,274.093z" data-original="#FEE572" class=""/><circle style="fill:#0E6EF3" cx="209" cy="238.94" r="16.755" data-original="#0E6EF3" class="" data-old_color="#0E6EF3"/><path style="fill:#0062BC" d="M225.76,238.939c0,9.259-7.5,16.76-16.76,16.76V222.19C218.259,222.19,225.76,229.691,225.76,238.939  z" data-original="#0062BC" class="" data-old_color="#30FF00"/></g> </svg>
